Coordinates
version=1
nRows=8
nColumns=36
inDegrees=yes

Units are S.I. units (second, meters, Newtons, ...)
If the header above contains a line with 'inDegrees', this indicates whether rotational values are in degrees (yes) or radians (no).

endheader
time	pelvis_tilt	pelvis_list	pelvis_rotation	pelvis_tx	pelvis_ty	pelvis_tz	hip_flexion_r	hip_adduction_r	hip_rotation_r	knee_angle_r	knee_angle_r_beta	ankle_angle_r	subtalar_angle_r	mtp_angle_r	hip_flexion_l	hip_adduction_l	hip_rotation_l	knee_angle_l	knee_angle_l_beta	ankle_angle_l	subtalar_angle_l	mtp_angle_l	lumbar_extension	lumbar_bending	lumbar_rotation	arm_flex_r	arm_add_r	arm_rot_r	elbow_flex_r	pro_sup_r	arm_flex_l	arm_add_l	arm_rot_l	elbow_flex_l	pro_sup_l
      0.00000000	     -3.49838011	     -0.22761012	      1.05649701	     -1.02080183	      1.38180141	     -0.09608710	     -0.84656681	      0.34582352	    -16.40548571	      0.10916770	      0.00190534	      6.96218253	     -5.89688886	     -5.22054763	     -0.59995054	      0.48652739	    -14.27311308	      0.09400762	      0.00164074	      5.09662967	     -3.22521887	     -5.22054763	     -7.05991244	      1.27723489	     -0.66834472	      3.06277166	     -5.90922507	     12.79083548	     28.72181272	     80.51781600	      0.38617949	     -8.31450466	     16.29279809	     30.06889995	     70.93897483
      0.00416670	     -5.13606582	     -0.45914519	      0.82606000	     -1.02064298	      1.38011457	     -0.09640210	      0.86576632	      0.76189373	    -17.48413445	      0.12643044	      0.00220663	      9.19870598	     -3.13514468	     -5.52920628	      1.57490863	      0.42698067	    -17.86742800	      0.09425572	      0.00164507	      7.42024736	     -0.13306380	     -5.52920628	     -4.88168849	      1.43882254	     -0.29179943	      2.41801824	     -5.44516698	      9.82265270	     28.75434427	     79.73606578	      0.30177919	     -7.52468241	     14.27726046	     29.25000965	     70.67651805
      0.00833330	     -5.82349826	      0.12315588	      0.15223664	     -1.02108357	      1.37768563	     -0.09465710	      1.69971796	      0.36062692	    -18.03168500	      0.12206853	      0.00213050	      9.95494642	     -2.44626870	     -6.37942441	      2.48816243	      0.99806436	    -20.26156881	      0.09256974	      0.00161565	      8.59628154	      1.05317403	     -6.37942441	     -4.00340993	      0.35697225	      0.61505418	      1.76589483	     -4.66115263	      6.07987569	     29.60678243	     82.91244672	      0.53375857	     -7.88890458	     13.50705509	     29.35639500	     75.24495923
      0.01250000	     -6.14445291	      0.39288891	     -0.10765407	     -1.02154624	      1.38086993	     -0.09488722	      2.16443161	      0.08559659	    -18.61797481	      0.11439417	      0.00199655	     10.39934897	     -1.46484400	     -6.50695499	      2.87785071	      1.32287079	    -21.55905828	      0.08609911	      0.00150271	      9.01303297	      1.53142406	     -6.50695499	     -3.61854719	     -0.15323421	      0.90764356	      1.67372614	     -4.58364487	      6.47057008	     29.76085813	     81.89680791	      0.63490399	     -8.50165313	     14.52302189	     29.65415295	     75.26318262
      0.01666670	     -6.47483614	      0.56736769	     -0.33813278	     -1.01907432	      1.37891046	     -0.09292829	      2.50573200	     -0.04242265	    -18.92602902	      0.10740026	      0.00187449	     10.57951321	     -0.97646159	     -6.71580464	      3.14302319	      1.52757857	    -22.30910618	      0.08347039	      0.00145683	      9.34339078	      1.98831508	     -6.71580464	     -3.14361831	     -0.42866493	      1.34291193	      1.32600339	     -4.73103030	      7.76144683	     30.18156971	     80.20729833	      0.66936759	     -9.09252959	     16.58768677	     30.07873359	     75.40278632
      0.02083330	     -6.79986497	      0.65627009	     -0.44851252	     -1.01827527	      1.38311341	     -0.09216646	      2.81118352	     -0.07405528	    -18.88791419	      0.10187744	      0.00177810	     10.38052719	     -1.12186646	     -6.74909813	      3.41872192	      1.61539523	    -22.23675207	      0.08319187	      0.00145197	      9.19006576	      1.59238470	     -6.74909813	     -2.73473181	     -0.55781836	      1.48596429	      0.99848121	     -4.74806987	      7.89861768	     30.63008557	     79.86707818	      0.45645343	     -9.22791030	     16.71985851	     30.62825006	     75.24831184
      0.02500000	     -6.83321585	      0.73844076	     -0.57403861	     -1.01832288	      1.38484663	     -0.09212396	      2.83529101	     -0.13522046	    -19.31771006	      0.09779875	      0.00170691	     10.21321871	     -0.61866684	     -6.97209270	      3.39188656	      1.69777817	    -22.78838724	      0.08222847	      0.00143516	      9.18758245	      2.45461947	     -6.97209270	     -2.64876180	     -0.70809290	      1.85787937	      1.03873065	     -5.03538800	      9.76497075	     30.31032904	     78.71295318	      0.92370526	     -9.54958642	     18.67408792	     30.42600463	     80.00312995
      0.02916670	     -7.33926152	      0.70960633	     -0.56209147	     -1.01957093	      1.37821933	     -0.09187170	      3.33725603	     -0.06521898	    -19.44735947	      0.09675764	      0.00168874	     10.10403946	     -0.80881909	     -6.99553383	      3.90665151	      1.67977989	    -22.29444752	      0.08349212	      0.00145721	      9.12956070	      1.91145420	     -6.99553383	     -2.01742372	     -0.63452463	      1.81684855	      0.51047925	     -5.15008841	      9.81652020	     31.14151508	     78.05981103	      0.61435628	     -9.64394919	     18.67101684	     31.33235432	     79.32019250
